<svg id="Layer_1" data-name="Layer 1" xmlns="http://www.w3.org/2000/svg" viewBox="0 0 841.89 198.43"><defs><style>.cls-1{fill:#fff;}.cls-2{fill:#ed7004;}</style></defs><path class="cls-1" d="M273.2,82.78a19.52,19.52,0,0,1,9.73-2.4,18.77,18.77,0,0,1,14.76,6.88l8.73-8.05a27.64,27.64,0,0,0-10.36-7.72,36.44,36.44,0,0,0-30.12,1.22,29.13,29.13,0,0,0-11.41,10.82,31.56,31.56,0,0,0,0,31.29,29.08,29.08,0,0,0,11.41,10.83,33.74,33.74,0,0,0,16.23,3.9A34.56,34.56,0,0,0,296,126.86a27.29,27.29,0,0,0,10.4-7.8l-8.73-8a18.66,18.66,0,0,1-14.76,7,19.62,19.62,0,0,1-9.73-2.39,17,17,0,0,1-6.67-6.67,21,21,0,0,1,0-19.47A16.89,16.89,0,0,1,273.2,82.78Z"/><path class="cls-1" d="M363.34,102.41a19.92,19.92,0,0,0,3.15-11.29,19.47,19.47,0,0,0-12-18.71A32.69,32.69,0,0,0,341,69.81H315.56v58.73h13.59V112.18h12.5L353,128.54h14.6l-13.17-18.88A19.87,19.87,0,0,0,363.34,102.41Zm-13.8-3.74q-3.19,2.68-9.31,2.69H329.15V80.89h11.08q6.12,0,9.31,2.64t3.19,7.59A9.31,9.31,0,0,1,349.54,98.67Z"/><polygon class="cls-1" points="398.37 95.91 382.68 69.81 368.25 69.81 390.99 107.57 390.99 128.54 404.58 128.54 404.58 107.73 427.4 69.81 414.06 69.81 398.37 95.91"/><path class="cls-1" d="M471.48,72.41a32.66,32.66,0,0,0-13.55-2.6H432.51v58.73h13.6V112.35h11.82a33,33,0,0,0,13.55-2.56,19.84,19.84,0,0,0,8.85-7.38,20.41,20.41,0,0,0,3.11-11.29,19.47,19.47,0,0,0-12-18.71Zm-5,26.22c-2.12,1.76-5.23,2.64-9.31,2.64H446.11V80.89h11.07c4.08,0,7.19.88,9.31,2.64s3.19,4.29,3.19,7.59A9.18,9.18,0,0,1,466.49,98.63Z"/><polygon class="cls-1" points="484.87 80.89 503.66 80.89 503.66 128.54 517.25 128.54 517.25 80.89 536.04 80.89 536.04 69.81 484.87 69.81 484.87 80.89"/><rect class="cls-1" x="543.34" y="69.81" width="13.59" height="58.73"/><polygon class="cls-1" points="570.86 128.54 584.45 128.54 584.45 107.15 611.63 107.15 611.63 96.24 584.45 96.24 584.45 80.72 615.24 80.72 615.24 69.81 570.86 69.81 570.86 128.54"/><polygon class="cls-1" points="646.45 95.91 630.76 69.81 616.33 69.81 639.07 107.57 639.07 128.54 652.66 128.54 652.66 107.73 675.48 69.81 662.14 69.81 646.45 95.91"/><path class="cls-1" d="M725,69.81l-26.84,58.73h6.46l7-15.69h32.77l7,15.69H758L731.1,69.81Zm-11.11,38L728,76.23l14.14,31.59Z"/><rect class="cls-1" x="767.68" y="69.81" width="6.21" height="58.73"/><path class="cls-2" d="M179.37,109.34h-40.5a10.12,10.12,0,0,0,0,20.24h40.5a10.13,10.13,0,0,1,0,20.25h-40.5a50.62,50.62,0,0,1,0-101.24h58L176.61,68.84H138.87a30.37,30.37,0,0,0-28.63,40.5,30.37,30.37,0,0,1,28.63-20.25h43.26l60.74-60.74h-104a70.87,70.87,0,0,0,0,141.73h40.5a30.37,30.37,0,0,0,0-60.74Z"/></svg>